<svg width="60" height="60" viewBox="0 0 60 60" fill="none" xmlns="http://www.w3.org/2000/svg">
<rect x="1" y="1" width="58" height="58" rx="4" fill="#2CBCC6" stroke="white" stroke-width="2"/>
<path d="M40.6066 34.3934C38.9729 32.7596 37.0283 31.5502 34.9066 30.8181C37.179 29.253 38.6719 26.6337 38.6719 23.6719C38.6719 18.8902 34.7817 15 30 15C25.2183 15 21.3281 18.8902 21.3281 23.6719C21.3281 26.6337 22.821 29.253 25.0935 30.8181C22.9718 31.5502 21.0272 32.7596 19.3934 34.3934C16.5603 37.2265 15 40.9934 15 45H17.3438C17.3438 38.0213 23.0213 32.3438 30 32.3438C36.9787 32.3438 42.6562 38.0213 42.6562 45H45C45 40.9934 43.4397 37.2265 40.6066 34.3934ZM30 30C26.5107 30 23.6719 27.1613 23.6719 23.6719C23.6719 20.1825 26.5107 17.3438 30 17.3438C33.4893 17.3438 36.3281 20.1825 36.3281 23.6719C36.3281 27.1613 33.4893 30 30 30Z" fill="white"/>
</svg>
