<svg width="221" height="223" viewBox="0 0 221 223" fill="none" xmlns="http://www.w3.org/2000/svg">
<path d="M123.172 222.649H97.8315C96.2832 222.649 94.7889 222.074 93.6342 221.034C92.4796 219.993 91.7454 218.56 91.572 217.009L90.1771 204.525C79.3255 202.143 68.9826 197.826 59.6352 191.778L49.9028 199.606C48.6923 200.579 47.1688 201.068 45.6233 200.98C44.0779 200.893 42.6186 200.234 41.5242 199.13L23.6178 181.047C22.5231 179.944 21.8698 178.472 21.7827 176.913C21.6956 175.354 22.1807 173.818 23.1455 172.597L30.907 162.781C24.91 153.353 20.63 142.922 18.2683 131.977L5.89095 130.57C4.35612 130.395 2.93839 129.658 1.90736 128.498C0.876328 127.338 0.303907 125.837 0.29895 124.279V98.7211C0.298499 97.1594 0.868489 95.6524 1.90003 94.4878C2.93157 93.3232 4.35235 92.5827 5.89095 92.4078L18.2683 91.001C20.63 80.0562 24.91 69.6245 30.907 60.1969L23.1455 50.3936C22.1807 49.1727 21.6956 47.6362 21.7827 46.0775C21.8698 44.5187 22.5231 43.0469 23.6178 41.9432L41.5462 23.8704C42.6406 22.7662 44.0999 22.1073 45.6454 22.0195C47.1909 21.9316 48.7143 22.4209 49.9248 23.394L59.6573 31.2221C69.0046 25.1737 79.3475 20.8569 90.1992 18.4749L91.594 5.99132C91.767 4.44332 92.498 3.01342 93.6481 1.97353C94.7981 0.933652 96.287 0.356317 97.8315 0.351319H123.172C124.72 0.350863 126.214 0.925746 127.369 1.96614C128.524 3.00654 129.258 4.43952 129.431 5.99132L130.826 18.4749C141.678 20.8569 152.021 25.1737 161.368 31.2221L171.101 23.394C172.311 22.4209 173.834 21.9316 175.38 22.0195C176.925 22.1073 178.385 22.7662 179.479 23.8704L197.385 41.9527C198.48 43.0565 199.133 44.5282 199.221 46.087C199.308 47.6458 198.823 49.1823 197.858 50.4032L190.096 60.2192C196.093 69.6468 200.373 80.0784 202.735 91.0232L215.112 92.4301C216.647 92.6045 218.065 93.3418 219.096 94.5017C220.127 95.6616 220.699 97.1633 220.704 98.7211V124.279C220.705 125.841 220.135 127.348 219.103 128.512C218.072 129.677 216.651 130.417 215.112 130.592L202.735 131.999C200.373 142.944 196.093 153.375 190.096 162.803L197.858 172.619C198.823 173.84 199.308 175.376 199.221 176.935C199.133 178.494 198.48 179.966 197.385 181.07L179.457 199.13C178.363 200.234 176.903 200.893 175.358 200.98C173.812 201.068 172.289 200.579 171.079 199.606L161.346 191.778C151.999 197.826 141.656 202.143 130.804 204.525L129.409 217.009C129.236 218.557 128.505 219.987 127.355 221.026C126.205 222.066 124.716 222.644 123.172 222.649ZM59.4684 184.683C60.097 184.684 60.7111 184.874 61.2316 185.23C71.0165 191.908 82.0446 196.512 93.6469 198.761C94.3034 198.892 94.9015 199.23 95.3544 199.727C95.8073 200.224 96.0916 200.853 96.1659 201.524L97.8315 216.297H123.172L124.825 201.524C124.899 200.853 125.183 200.224 125.636 199.727C126.089 199.23 126.687 198.892 127.344 198.761C138.952 196.514 149.985 191.91 159.775 185.23C160.331 184.851 160.992 184.661 161.663 184.687C162.334 184.714 162.978 184.957 163.503 185.379L175.017 194.639L192.936 176.566L183.755 164.953C183.336 164.424 183.096 163.774 183.069 163.097C183.043 162.421 183.231 161.754 183.607 161.193C190.23 151.319 194.795 140.191 197.023 128.484C197.153 127.821 197.489 127.218 197.981 126.761C198.474 126.305 199.098 126.018 199.763 125.943L214.407 124.279V98.7211L199.76 97.0538C199.095 96.9789 198.47 96.6922 197.978 96.2354C197.485 95.7786 197.15 95.1754 197.02 94.5133C194.79 82.8114 190.225 71.6886 183.604 61.8197C183.228 61.2589 183.04 60.5916 183.066 59.9152C183.093 59.2388 183.333 58.5887 183.752 58.0597L192.933 46.4463L175.014 28.3608L163.5 37.6211C162.975 38.0434 162.331 38.2857 161.66 38.3126C160.989 38.3394 160.328 38.1494 159.772 37.7703C149.982 31.09 138.948 26.4863 127.341 24.2388C126.684 24.108 126.086 23.7696 125.633 23.2728C125.18 22.776 124.896 22.1466 124.822 21.4759L123.172 6.70267H97.8315L96.1785 21.4759C96.1042 22.1466 95.8199 22.776 95.367 23.2728C94.9141 23.7696 94.316 24.108 93.6595 24.2388C82.0572 26.4883 71.0291 31.092 61.2442 37.7703C60.6882 38.1494 60.0266 38.3394 59.3559 38.3126C58.6853 38.2857 58.0407 38.0434 57.5162 37.6211L45.989 28.3608L28.07 46.4336L37.2515 58.047C37.6703 58.576 37.9105 59.2261 37.9371 59.9025C37.9637 60.5789 37.7754 61.2462 37.3995 61.807C30.778 71.6759 26.2135 82.7987 23.9831 94.5006C23.8534 95.1627 23.5179 95.7659 23.0254 96.2227C22.5328 96.6795 21.9088 96.9662 21.2438 97.0411L6.59625 98.7211V124.279L21.2438 125.946C21.9088 126.021 22.5328 126.308 23.0254 126.765C23.5179 127.221 23.8534 127.825 23.9831 128.487C26.2115 140.194 30.776 151.323 37.3995 161.196C37.7754 161.757 37.9637 162.424 37.9371 163.101C37.9105 163.777 37.6703 164.427 37.2515 164.956L28.07 176.566L45.989 194.639L57.5036 185.379C58.0614 184.929 58.7542 184.684 59.4684 184.683Z" fill="white" fill-opacity="0.2"/>
<path d="M166.769 86.1898C166.179 86.1907 165.6 86.0242 165.099 85.7091C164.598 85.3941 164.195 84.9433 163.936 84.4083C162.574 81.6057 160.965 78.9326 159.128 76.4215C158.882 76.0857 158.704 75.7045 158.605 75.2996C158.505 74.8946 158.486 74.4738 158.547 74.0613C158.609 73.6487 158.751 73.2525 158.964 72.8952C159.178 72.5378 159.459 72.2264 159.792 71.9787C160.125 71.731 160.503 71.5518 160.904 71.4514C161.306 71.351 161.723 71.3314 162.132 71.3936C162.541 71.4558 162.934 71.5987 163.288 71.814C163.642 72.0294 163.951 72.313 164.197 72.6488C166.259 75.469 168.065 78.4705 169.594 81.6169C169.829 82.1015 169.938 82.6387 169.911 83.1776C169.883 83.7166 169.72 84.2396 169.436 84.6973C169.153 85.1549 168.758 85.5321 168.29 85.7933C167.822 86.0544 167.295 86.1909 166.76 86.1898H166.769Z" fill="white" fill-opacity="0.2"/>
<path d="M110.499 178.189C99.9004 178.179 89.459 175.602 80.053 170.675C70.6469 165.749 62.5511 158.616 56.4463 149.878C48.5627 138.663 44.3439 125.248 44.3775 111.5C44.3967 93.819 51.3692 76.8675 63.7652 64.3651C76.1613 51.8626 92.9684 44.8302 110.499 44.8109C111.689 44.8109 112.882 44.8437 114.076 44.9094C114.489 44.9327 114.894 45.038 115.267 45.2192C115.641 45.4003 115.975 45.6538 116.251 45.9652C116.527 46.2766 116.739 46.6398 116.876 47.0341C117.013 47.4283 117.071 47.8458 117.048 48.2629C117.025 48.6799 116.921 49.0883 116.741 49.4646C116.562 49.841 116.31 50.178 116.001 50.4563C115.693 50.7347 115.333 50.949 114.942 51.087C114.551 51.2251 114.137 51.2841 113.723 51.2607C112.65 51.1908 111.573 51.1623 110.499 51.1623C94.6381 51.1799 79.4317 57.5426 68.2162 68.8543C57.0008 80.166 50.6923 95.5029 50.6748 111.5C50.644 123.935 54.4588 136.071 61.588 146.217C67.1051 154.13 74.4291 160.589 82.9417 165.048C91.4543 169.507 100.906 171.834 110.498 171.834C120.09 171.834 129.541 169.507 138.053 165.048C146.566 160.589 153.89 154.13 159.407 146.217C166.537 136.071 170.352 123.936 170.323 111.5C170.323 110.792 170.323 110.081 170.27 109.372C170.203 108.533 170.47 107.701 171.011 107.059C171.553 106.418 172.325 106.02 173.157 105.952C173.99 105.885 174.815 106.154 175.451 106.7C176.087 107.246 176.482 108.025 176.548 108.864C176.618 109.744 176.621 110.62 176.621 111.5C176.653 125.249 172.435 138.667 164.552 149.884C158.446 158.621 150.35 165.752 140.944 170.677C131.538 175.602 121.097 178.179 110.499 178.189Z" fill="white" fill-opacity="0.2"/>
<path d="M145.884 62.15C145.245 62.1499 144.622 61.9539 144.096 61.5879C141.667 59.9097 139.113 58.4233 136.457 57.1419C136.077 56.9652 135.736 56.7138 135.454 56.4026C135.171 56.0913 134.953 55.7264 134.812 55.3292C134.671 54.9319 134.61 54.5103 134.632 54.0889C134.654 53.6676 134.76 53.2549 134.942 52.8751C135.124 52.4952 135.38 52.1559 135.693 51.8767C136.007 51.5976 136.373 51.3843 136.769 51.2494C137.166 51.1145 137.585 51.0606 138.002 51.0908C138.419 51.1211 138.827 51.2349 139.2 51.4257C142.147 52.8534 144.982 54.5064 147.679 56.3702C148.232 56.7552 148.648 57.3085 148.867 57.9493C149.086 58.5901 149.096 59.2847 148.896 59.9315C148.695 60.5784 148.295 61.1436 147.753 61.5444C147.211 61.9453 146.556 62.1608 145.884 62.1595V62.15Z" fill="white" fill-opacity="0.2"/>
<path d="M161.984 151.228C161.477 151.228 160.978 151.105 160.529 150.869C160.079 150.633 159.693 150.291 159.402 149.872C153.897 141.944 146.578 135.472 138.065 131.003C129.552 126.535 120.097 124.202 110.501 124.202C100.904 124.202 91.449 126.535 82.9364 131.003C74.4239 135.472 67.1047 141.944 61.599 149.872C61.3654 150.222 61.065 150.521 60.7153 150.753C60.3655 150.984 59.9736 151.143 59.5623 151.22C59.151 151.298 58.7285 151.291 58.3197 151.202C57.9109 151.112 57.5238 150.942 57.1811 150.7C56.8384 150.458 56.547 150.149 56.3238 149.792C56.1007 149.435 55.9503 149.037 55.8815 148.621C55.8126 148.205 55.8267 147.779 55.9228 147.368C56.019 146.958 56.1953 146.57 56.4416 146.229C62.5279 137.466 70.619 130.311 80.0294 125.371C89.4398 120.431 99.8921 117.852 110.501 117.852C121.109 117.852 131.562 120.431 140.972 125.371C150.382 130.311 158.474 137.466 164.56 146.229C164.89 146.705 165.085 147.263 165.123 147.842C165.161 148.422 165.041 149.001 164.775 149.517C164.51 150.032 164.109 150.464 163.617 150.766C163.125 151.067 162.56 151.227 161.984 151.228Z" fill="white" fill-opacity="0.2"/>
<path d="M110.503 124.203C105.735 124.203 101.074 122.777 97.1102 120.105C93.146 117.434 90.0563 113.637 88.2317 109.194C86.4072 104.751 85.9298 99.8628 86.86 95.1466C87.7901 90.4303 90.086 86.0982 93.4573 82.6979C96.8286 79.2977 101.124 76.9821 105.8 76.044C110.476 75.1059 115.323 75.5873 119.728 77.4275C124.133 79.2677 127.897 82.384 130.546 86.3822C133.195 90.3805 134.609 95.0811 134.609 99.8898C134.601 106.336 132.059 112.515 127.54 117.073C123.021 121.631 116.894 124.195 110.503 124.203ZM110.503 81.9282C106.981 81.9282 103.537 82.9816 100.609 84.9553C97.6802 86.9289 95.3976 89.7341 94.0497 93.0162C92.7018 96.2982 92.3491 99.9097 93.0363 103.394C93.7234 106.878 95.4195 110.079 97.9101 112.591C100.401 115.103 103.574 116.813 107.028 117.506C110.483 118.199 114.064 117.844 117.318 116.484C120.572 115.125 123.353 112.822 125.31 109.869C127.267 106.915 128.312 103.442 128.312 99.8898C128.307 95.1276 126.429 90.5619 123.09 87.1946C119.751 83.8272 115.224 81.9332 110.503 81.9282Z" fill="white" fill-opacity="0.2"/>
</svg>
