<svg width="132" height="131" viewBox="0 0 132 131" fill="none" xmlns="http://www.w3.org/2000/svg">
<path d="M130 65.5C130 100.556 101.361 129 66 129C30.6394 129 2 100.556 2 65.5C2 30.4442 30.6394 2 66 2C101.361 2 130 30.4442 130 65.5Z" fill="#2CBCC6" stroke="white" stroke-width="4"/>
<path d="M57.3361 92.353C56.6296 93.0633 55.6661 93.46 54.6648 93.46C53.6635 93.46 52.7 93.0633 51.9935 92.353L30.6606 71.0163C28.4465 68.8022 28.4465 65.2127 30.6606 63.0023L33.3319 60.331C35.5461 58.1169 39.1318 58.1169 41.3459 60.331L54.6648 73.6499L90.6541 37.6606C92.8682 35.4465 96.4577 35.4465 98.6681 37.6606L101.339 40.3319C103.554 42.5461 103.554 46.1356 101.339 48.3459L57.3361 92.353Z" fill="white"/>
</svg>
