<svg width="54" height="54" viewBox="0 0 54 54" fill="none" xmlns="http://www.w3.org/2000/svg">
<g clip-path="url(#clip0)">
<path d="M18.0016 4.68528C18.4269 4.61634 18.7157 4.21571 18.6468 3.79044C18.5778 3.36518 18.1772 3.07632 17.7519 3.14526C17.3267 3.21419 17.0378 3.61483 17.1068 4.04009C17.1757 4.46536 17.5763 4.75422 18.0016 4.68528Z" fill="white"/>
<path d="M40.3658 19.6644L36.7354 14.1303C36.3252 13.5051 36.1083 12.7794 36.1077 12.0319C36.1077 12.0308 36.108 12.0298 36.108 12.0287V8.45184C37.2344 8.39394 38.1337 7.46202 38.1337 6.32148V2.13595C38.1337 0.958184 37.1755 0 35.9977 0H14.4662C13.2884 0 12.3302 0.958184 12.3302 2.13595V6.32159C12.3302 7.41382 13.1548 8.31579 14.2138 8.44119V13.6276C14.2138 15.0436 13.9166 16.4137 13.3303 17.7002L13.0055 18.4142C12.325 19.9099 11.98 21.5004 11.98 23.142V24.7674C11.98 25.2043 12.3341 25.5585 12.771 25.5585C13.2078 25.5585 13.562 25.2043 13.562 24.7674V23.142C13.562 21.728 13.8592 20.3579 14.4454 19.0694L14.7701 18.3558C15.4507 16.8622 15.7958 15.2715 15.7958 13.6275V8.45743H34.5257V12.0291C34.5257 13.0869 34.8324 14.1135 35.4127 14.998L39.0686 20.5708C39.8547 21.4791 40.4475 22.8836 40.4438 24.1982L39.5051 30.7033C39.3831 31.5493 38.9568 32.3195 38.3052 32.8718C37.9926 33.0804 37.7969 33.6036 38.1065 34.0465C38.4056 34.2944 38.7288 34.5541 39.3275 34.0791C40.2745 33.2764 40.8937 32.1578 41.0709 30.9292L42.0179 24.3661C42.076 22.774 41.4478 20.9488 40.3658 19.6644V19.6644ZM13.9123 6.32159V2.13595C13.9123 1.83052 14.1608 1.58203 14.4662 1.58203H35.9979C36.3033 1.58203 36.5518 1.83052 36.5518 2.13595V6.32159C36.5518 6.62702 36.3033 6.87551 35.9979 6.87551H14.4662C14.1608 6.8754 13.9123 6.62692 13.9123 6.32159V6.32159Z" fill="white"/>
<path d="M35.316 28.6841C34.8791 28.6841 34.5249 29.0383 34.5249 29.4751V50.3909C34.5249 51.5086 33.6155 52.4181 32.4977 52.4181C31.3799 52.4181 30.4705 51.5086 30.4705 50.3909V36.8126V34.4622C30.4705 34.0254 30.1164 33.6712 29.6795 33.6712C29.2427 33.6712 28.8885 34.0254 28.8885 34.4622V36.8126C28.8885 37.9304 27.979 38.8398 26.8613 38.8398C25.7435 38.8398 24.8341 37.9304 24.8341 36.8126V35.757C24.8341 34.6522 24.1768 33.6598 23.1595 33.2289C22.7573 33.0584 22.293 33.2464 22.1226 33.6486C21.9521 34.0509 22.1401 34.5152 22.5423 34.6856C22.9735 34.8683 23.252 35.2888 23.252 35.7571C23.3621 36.8642 22.4247 38.0068 21.2247 37.9962C20.107 37.9962 19.1975 37.0867 19.1975 35.969C19.186 35.4293 19.2228 34.3726 19.1788 33.8624C19.0784 32.9587 18.5443 32.1539 17.7325 31.7152C17.3482 31.5074 16.8683 31.6505 16.6605 32.035C16.4529 32.4193 16.596 32.8992 16.9803 33.107C17.3165 33.2886 17.5421 33.6152 17.5997 33.9854C17.5485 34.4385 17.3461 34.8639 17.0228 35.1877C16.6392 35.5706 16.1297 35.7814 15.5881 35.7814C14.4704 35.7814 13.561 34.8721 13.561 33.7543V28.4773C13.561 28.0404 13.2069 27.6863 12.77 27.6863C12.3332 27.6863 11.979 28.0404 11.979 28.4773V33.7543C11.979 35.7444 13.5981 37.3635 15.5881 37.3635C16.3515 37.3635 17.0786 37.1272 17.6879 36.69C18.023 38.3358 19.4814 39.5782 21.2246 39.5782C22.1895 39.5782 23.0665 39.1968 23.7147 38.5778C24.3339 39.6772 25.5119 40.422 26.8611 40.422C27.6121 40.422 28.31 40.1912 28.8883 39.7972V50.391C28.8883 52.3811 30.5074 54.0002 32.4975 54.0002C34.4876 54.0002 36.1068 52.3811 36.1068 50.391V29.4751C36.107 29.0383 35.7528 28.6841 35.316 28.6841V28.6841Z" fill="white"/>
</g>
<defs>
<clipPath id="clip0">
<rect width="54" height="54" fill="white"/>
</clipPath>
</defs>
</svg>
