<svg width="132" height="131" viewBox="0 0 132 131" fill="none" xmlns="http://www.w3.org/2000/svg">
<path d="M130 65.5C130 100.556 101.361 129 66 129C30.6394 129 2 100.556 2 65.5C2 30.4442 30.6394 2 66 2C101.361 2 130 30.4442 130 65.5Z" fill="#2CBCC6" stroke="white" stroke-width="4"/>
<path d="M97.7236 60.7315C97.7236 59.4054 96.6488 58.3309 95.323 58.3309C93.9972 58.3309 92.9224 59.4054 92.9224 60.7315C92.9224 73.8471 82.2519 84.5175 69.1363 84.5175C56.0208 84.5175 45.3503 73.8467 45.3503 60.7315C45.3503 59.4054 44.2754 58.3309 42.9497 58.3309C41.6239 58.3309 40.5491 59.4054 40.5491 60.7315C40.5491 75.6862 52.0918 87.9936 66.7357 89.217V97.7106H56.0428C54.7171 97.7106 53.6422 98.7851 53.6422 100.111C53.6422 101.437 54.7171 102.512 56.0428 102.512H82.2295C83.5553 102.512 84.6301 101.437 84.6301 100.111C84.6301 98.7851 83.5553 97.7106 82.2295 97.7106H71.5366V89.217C86.1806 87.9936 97.7236 75.6862 97.7236 60.7315Z" fill="white"/>
<path d="M69.136 76.2253C77.6795 76.2253 84.6301 69.2747 84.6301 60.7315V37.9252C84.6301 29.3819 77.6795 22.4314 69.136 22.4314C60.5927 22.4314 53.6422 29.3819 53.6422 37.9252V60.7315C53.6422 69.275 60.5927 76.2253 69.136 76.2253ZM58.4434 37.9252C58.4434 32.0293 63.2401 27.2326 69.136 27.2326C75.0322 27.2326 79.8289 32.0293 79.8289 37.9252V60.7315C79.8289 66.6273 75.0322 71.4241 69.136 71.4241C63.2401 71.4241 58.4434 66.6273 58.4434 60.7315V37.9252Z" fill="white"/>
</svg>
