<svg width="487" height="159" viewBox="0 0 487 159" fill="none" xmlns="http://www.w3.org/2000/svg">
<path d="M224.422 60.3551C221.682 60.3551 219.586 62.4643 219.586 65.2225V93.7776C219.586 96.5357 221.682 98.6449 224.422 98.6449C227.163 98.6449 229.259 96.5357 229.259 93.7776V65.2225C229.259 62.4643 227.163 60.3551 224.422 60.3551Z" fill="url(#paint0_linear)"/>
<path d="M209.429 45.2663C206.688 45.2663 204.592 47.3755 204.592 50.1337V108.866C204.592 111.624 206.688 113.734 209.429 113.734C212.169 113.734 214.265 111.624 214.265 108.866V50.1337C214.265 47.3755 212.169 45.2663 209.429 45.2663Z" fill="url(#paint1_linear)"/>
<path d="M194.274 31.151C191.533 31.151 189.437 33.2602 189.437 36.0183V122.982C189.437 125.74 191.533 127.849 194.274 127.849C197.014 127.849 199.11 125.74 199.11 122.982V36.0183C199.11 33.2602 197.014 31.151 194.274 31.151Z" fill="url(#paint2_linear)"/>
<path d="M179.28 45.2663C176.539 45.2663 174.443 47.3755 174.443 50.1337V108.866C174.443 111.624 176.539 113.734 179.28 113.734C182.02 113.734 184.116 111.624 184.116 108.866V50.1337C184.116 47.3755 182.02 45.2663 179.28 45.2663Z" fill="url(#paint3_linear)"/>
<path d="M164.125 59.3816C161.384 59.3816 159.288 61.4908 159.288 64.249V94.751C159.288 97.5092 161.384 99.6184 164.125 99.6184C166.865 99.6184 168.961 97.5092 168.961 94.751V64.249C168.961 61.4908 166.865 59.3816 164.125 59.3816Z" fill="url(#paint4_linear)"/>
<path d="M269.214 19.1147C266.473 19.1147 264.377 21.7734 264.377 25.2502V134.871C264.377 138.347 266.473 141.006 269.214 141.006C271.955 141.006 274.051 138.347 274.051 134.871V25.2502C274.051 21.7734 271.955 19.1147 269.214 19.1147Z" fill="url(#paint5_linear)"/>
<path d="M253.673 39.9672C250.932 39.9672 248.836 42.4511 248.836 45.6992V80.282V114.865C248.836 118.113 250.932 120.597 253.673 120.597C256.414 120.597 258.51 118.113 258.51 114.865V45.6992C258.51 42.4511 256.414 39.9672 253.673 39.9672Z" fill="url(#paint6_linear)"/>
<path d="M239.578 52.8918C236.837 52.8918 234.741 55.001 234.741 57.7592V101.241C234.741 103.999 236.837 106.108 239.578 106.108C242.318 106.108 244.414 103.999 244.414 101.241V57.7592C244.414 55.001 242.318 52.8918 239.578 52.8918Z" fill="url(#paint7_linear)"/>
<path d="M283.891 39.9672C281.151 39.9672 279.055 42.4243 279.055 45.6374V114.058C279.055 117.271 281.151 119.728 283.891 119.728C286.632 119.728 288.728 117.271 288.728 114.058V45.6374C288.728 42.4243 286.632 39.9672 283.891 39.9672Z" fill="url(#paint8_linear)"/>
<path d="M299.432 53C296.692 53 294.596 55.7896 294.596 59.4376V99.7797C294.596 103.428 296.692 106.217 299.432 106.217C302.173 106.217 304.269 103.428 304.269 99.7797V59.4376C304.269 55.7896 302.173 53 299.432 53Z" fill="url(#paint9_linear)"/>
<path d="M468.5 45C465.95 45 464 47.0948 464 49.8341V108.166C464 110.905 465.95 113 468.5 113C471.05 113 473 110.905 473 108.166V49.8341C473 47.0948 471.05 45 468.5 45Z" fill="url(#paint10_linear)"/>
<path d="M482.5 68C479.95 68 478 69.1568 478 70.6695V86.3305C478 87.8432 479.95 89 482.5 89C485.05 89 487 87.8432 487 86.3305V70.6695C487 69.1568 485.05 68 482.5 68Z" fill="url(#paint11_linear)"/>
<path d="M71.769 59.9508C69.0109 59.9508 66.9017 62.06 66.9017 64.8182V93.3733C66.9017 96.1314 69.0109 98.2406 71.769 98.2406C74.5272 98.2406 76.6364 96.1314 76.6364 93.3733V64.8182C76.6364 62.06 74.5272 59.9508 71.769 59.9508Z" fill="url(#paint12_linear)"/>
<path d="M37.3607 69.5082C34.8989 69.5082 33.0164 70.6569 33.0164 72.1589V87.7099C33.0164 89.212 34.8989 90.3607 37.3607 90.3607C39.8224 90.3607 41.7049 89.212 41.7049 87.7099V72.1589C41.7049 70.6569 39.8224 69.5082 37.3607 69.5082Z" fill="url(#paint13_linear)"/>
<path d="M117.465 31.151C114.707 31.151 112.598 33.2602 112.598 36.0184V122.982C112.598 125.74 114.707 127.849 117.465 127.849C120.223 127.849 122.333 125.74 122.333 122.982V36.0184C122.333 33.2602 120.223 31.151 117.465 31.151Z" fill="url(#paint14_linear)"/>
<path d="M102.214 45.2663C99.4562 45.2663 97.347 47.3755 97.347 50.1337V108.866C97.347 111.624 99.4562 113.734 102.214 113.734C104.972 113.734 107.082 111.624 107.082 108.866V50.1337C107.082 47.3755 104.972 45.2663 102.214 45.2663Z" fill="url(#paint15_linear)"/>
<path d="M54.3919 46.0492C51.6338 46.0492 49.5246 48.1584 49.5246 50.9165V109.649C49.5246 112.407 51.6338 114.517 54.3919 114.517C57.1501 114.517 59.2593 112.407 59.2593 109.649V50.9165C59.2593 48.1584 57.1501 46.0492 54.3919 46.0492Z" fill="url(#paint16_linear)"/>
<path d="M87.1255 52.8918C84.3674 52.8918 82.2582 55.001 82.2582 57.7592V101.241C82.2582 103.999 84.3674 106.108 87.1255 106.108C89.8837 106.108 91.9929 103.999 91.9929 101.241V57.7592C91.9929 55.001 89.8837 52.8918 87.1255 52.8918Z" fill="url(#paint17_linear)"/>
<path d="M132.554 45.2663C129.796 45.2663 127.687 47.3755 127.687 50.1337V108.866C127.687 111.624 129.796 113.734 132.554 113.734C135.312 113.734 137.421 111.624 137.421 108.866V50.1337C137.421 47.3755 135.312 45.2663 132.554 45.2663Z" fill="url(#paint18_linear)"/>
<path d="M147.805 59.3817C145.047 59.3817 142.938 61.4908 142.938 64.249V94.751C142.938 97.5092 145.047 99.6184 147.805 99.6184C150.563 99.6184 152.673 97.5092 152.673 94.751V64.249C152.673 61.4908 150.563 59.3817 147.805 59.3817Z" fill="url(#paint19_linear)"/>
<path d="M376.874 60.3551C374.116 60.3551 372.007 62.4643 372.007 65.2225V93.7776C372.007 96.5357 374.116 98.6449 376.874 98.6449C379.633 98.6449 381.742 96.5357 381.742 93.7776V65.2225C381.742 62.4643 379.633 60.3551 376.874 60.3551Z" fill="url(#paint20_linear)"/>
<path d="M361.786 45.2663C359.028 45.2663 356.918 47.3755 356.918 50.1337V108.866C356.918 111.624 359.028 113.734 361.786 113.734C364.544 113.734 366.653 111.624 366.653 108.866V50.1337C366.653 47.3755 364.544 45.2663 361.786 45.2663Z" fill="url(#paint21_linear)"/>
<path d="M346.535 31.151C343.777 31.151 341.667 33.2602 341.667 36.0184V122.982C341.667 125.74 343.777 127.849 346.535 127.849C349.293 127.849 351.402 125.74 351.402 122.982V36.0184C351.402 33.2602 349.293 31.151 346.535 31.151Z" fill="url(#paint22_linear)"/>
<path d="M331.446 45.2663C328.688 45.2663 326.578 47.3755 326.578 50.1337V108.866C326.578 111.624 328.688 113.734 331.446 113.734C334.204 113.734 336.313 111.624 336.313 108.866V50.1337C336.313 47.3755 334.204 45.2663 331.446 45.2663Z" fill="url(#paint23_linear)"/>
<path d="M316.195 59.3817C313.437 59.3817 311.328 61.4908 311.328 64.249V94.751C311.328 97.5092 313.437 99.6184 316.195 99.6184C318.953 99.6184 321.062 97.5092 321.062 94.751V64.249C321.062 61.4908 318.953 59.3817 316.195 59.3817Z" fill="url(#paint24_linear)"/>
<path d="M422.465 31.151C419.707 31.151 417.598 33.2602 417.598 36.0184V122.982C417.598 125.74 419.707 127.849 422.465 127.849C425.223 127.849 427.333 125.74 427.333 122.982V36.0184C427.333 33.2602 425.223 31.151 422.465 31.151Z" fill="url(#paint25_linear)"/>
<path d="M407.214 45.2663C404.456 45.2663 402.347 47.3755 402.347 50.1337V108.866C402.347 111.624 404.456 113.734 407.214 113.734C409.972 113.734 412.082 111.624 412.082 108.866V50.1337C412.082 47.3755 409.972 45.2663 407.214 45.2663Z" fill="url(#paint26_linear)"/>
<path d="M392.408 53C389.65 53 387.541 55.1092 387.541 57.8673V101.349C387.541 104.107 389.65 106.216 392.408 106.216C395.166 106.216 397.276 104.107 397.276 101.349V57.8673C397.276 55.1092 395.166 53 392.408 53Z" fill="url(#paint27_linear)"/>
<path d="M437.554 45.2663C434.796 45.2663 432.687 47.3755 432.687 50.1337V108.866C432.687 111.624 434.796 113.734 437.554 113.734C440.312 113.734 442.421 111.624 442.421 108.866V50.1337C442.421 47.3755 440.312 45.2663 437.554 45.2663Z" fill="url(#paint28_linear)"/>
<path d="M452.805 59.3817C450.047 59.3817 447.938 61.4908 447.938 64.249V94.751C447.938 97.5092 450.047 99.6184 452.805 99.6184C455.563 99.6184 457.672 97.5092 457.672 94.751V64.249C457.672 61.4908 455.563 59.3817 452.805 59.3817Z" fill="url(#paint29_linear)"/>
<defs>
<linearGradient id="paint0_linear" x1="224.422" y1="60.3554" x2="224.422" y2="98.6446" gradientUnits="userSpaceOnUse">
<stop stop-color="#00EFD1"/>
<stop offset="1" stop-color="#00ACEA"/>
</linearGradient>
<linearGradient id="paint1_linear" x1="209.429" y1="45.2662" x2="209.429" y2="113.733" gradientUnits="userSpaceOnUse">
<stop stop-color="#00EFD1"/>
<stop offset="1" stop-color="#00ACEA"/>
</linearGradient>
<linearGradient id="paint2_linear" x1="194.274" y1="31.1513" x2="194.274" y2="127.849" gradientUnits="userSpaceOnUse">
<stop stop-color="#00EFD1"/>
<stop offset="1" stop-color="#00ACEA"/>
</linearGradient>
<linearGradient id="paint3_linear" x1="179.28" y1="45.2662" x2="179.28" y2="113.733" gradientUnits="userSpaceOnUse">
<stop stop-color="#00EFD1"/>
<stop offset="1" stop-color="#00ACEA"/>
</linearGradient>
<linearGradient id="paint4_linear" x1="164.125" y1="59.3818" x2="164.125" y2="99.619" gradientUnits="userSpaceOnUse">
<stop stop-color="#00EFD1"/>
<stop offset="1" stop-color="#00ACEA"/>
</linearGradient>
<linearGradient id="paint5_linear" x1="269.215" y1="19.1152" x2="269.215" y2="141.006" gradientUnits="userSpaceOnUse">
<stop stop-color="#00EFD1"/>
<stop offset="1" stop-color="#00ACEA"/>
</linearGradient>
<linearGradient id="paint6_linear" x1="253.673" y1="39.967" x2="253.673" y2="120.596" gradientUnits="userSpaceOnUse">
<stop stop-color="#00EFD1"/>
<stop offset="1" stop-color="#00ACEA"/>
</linearGradient>
<linearGradient id="paint7_linear" x1="239.578" y1="52.892" x2="239.578" y2="106.109" gradientUnits="userSpaceOnUse">
<stop stop-color="#00EFD1"/>
<stop offset="1" stop-color="#00ACEA"/>
</linearGradient>
<linearGradient id="paint8_linear" x1="283.892" y1="39.967" x2="283.892" y2="119.727" gradientUnits="userSpaceOnUse">
<stop stop-color="#00EFD1"/>
<stop offset="1" stop-color="#00ACEA"/>
</linearGradient>
<linearGradient id="paint9_linear" x1="299.432" y1="53.0002" x2="299.432" y2="106.218" gradientUnits="userSpaceOnUse">
<stop stop-color="#00EFD1"/>
<stop offset="1" stop-color="#00ACEA"/>
</linearGradient>
<linearGradient id="paint10_linear" x1="468.5" y1="44.9998" x2="468.5" y2="112.999" gradientUnits="userSpaceOnUse">
<stop stop-color="#00EFD1"/>
<stop offset="1" stop-color="#00ACEA"/>
</linearGradient>
<linearGradient id="paint11_linear" x1="482.5" y1="68.0002" x2="482.5" y2="88.9998" gradientUnits="userSpaceOnUse">
<stop stop-color="#00EFD1"/>
<stop offset="1" stop-color="#00ACEA"/>
</linearGradient>
<linearGradient id="paint12_linear" x1="71.769" y1="59.9512" x2="71.769" y2="98.2403" gradientUnits="userSpaceOnUse">
<stop stop-color="#00EFD1"/>
<stop offset="1" stop-color="#00ACEA"/>
</linearGradient>
<linearGradient id="paint13_linear" x1="37.3607" y1="69.5084" x2="37.3607" y2="90.3605" gradientUnits="userSpaceOnUse">
<stop stop-color="#00EFD1"/>
<stop offset="1" stop-color="#00ACEA"/>
</linearGradient>
<linearGradient id="paint14_linear" x1="117.466" y1="31.1514" x2="117.466" y2="127.849" gradientUnits="userSpaceOnUse">
<stop stop-color="#00EFD1"/>
<stop offset="1" stop-color="#00ACEA"/>
</linearGradient>
<linearGradient id="paint15_linear" x1="102.215" y1="45.2662" x2="102.215" y2="113.733" gradientUnits="userSpaceOnUse">
<stop stop-color="#00EFD1"/>
<stop offset="1" stop-color="#00ACEA"/>
</linearGradient>
<linearGradient id="paint16_linear" x1="54.3923" y1="46.049" x2="54.3923" y2="114.516" gradientUnits="userSpaceOnUse">
<stop stop-color="#00EFD1"/>
<stop offset="1" stop-color="#00ACEA"/>
</linearGradient>
<linearGradient id="paint17_linear" x1="87.1262" y1="52.892" x2="87.1262" y2="106.109" gradientUnits="userSpaceOnUse">
<stop stop-color="#00EFD1"/>
<stop offset="1" stop-color="#00ACEA"/>
</linearGradient>
<linearGradient id="paint18_linear" x1="132.555" y1="45.2662" x2="132.555" y2="113.733" gradientUnits="userSpaceOnUse">
<stop stop-color="#00EFD1"/>
<stop offset="1" stop-color="#00ACEA"/>
</linearGradient>
<linearGradient id="paint19_linear" x1="147.805" y1="59.3818" x2="147.805" y2="99.619" gradientUnits="userSpaceOnUse">
<stop stop-color="#00EFD1"/>
<stop offset="1" stop-color="#00ACEA"/>
</linearGradient>
<linearGradient id="paint20_linear" x1="376.874" y1="60.3555" x2="376.874" y2="98.6446" gradientUnits="userSpaceOnUse">
<stop stop-color="#00EFD1"/>
<stop offset="1" stop-color="#00ACEA"/>
</linearGradient>
<linearGradient id="paint21_linear" x1="361.786" y1="45.2662" x2="361.786" y2="113.733" gradientUnits="userSpaceOnUse">
<stop stop-color="#00EFD1"/>
<stop offset="1" stop-color="#00ACEA"/>
</linearGradient>
<linearGradient id="paint22_linear" x1="346.535" y1="31.1514" x2="346.535" y2="127.849" gradientUnits="userSpaceOnUse">
<stop stop-color="#00EFD1"/>
<stop offset="1" stop-color="#00ACEA"/>
</linearGradient>
<linearGradient id="paint23_linear" x1="331.446" y1="45.2662" x2="331.446" y2="113.733" gradientUnits="userSpaceOnUse">
<stop stop-color="#00EFD1"/>
<stop offset="1" stop-color="#00ACEA"/>
</linearGradient>
<linearGradient id="paint24_linear" x1="316.195" y1="59.3818" x2="316.195" y2="99.619" gradientUnits="userSpaceOnUse">
<stop stop-color="#00EFD1"/>
<stop offset="1" stop-color="#00ACEA"/>
</linearGradient>
<linearGradient id="paint25_linear" x1="422.466" y1="31.1514" x2="422.466" y2="127.849" gradientUnits="userSpaceOnUse">
<stop stop-color="#00EFD1"/>
<stop offset="1" stop-color="#00ACEA"/>
</linearGradient>
<linearGradient id="paint26_linear" x1="407.215" y1="45.2662" x2="407.215" y2="113.733" gradientUnits="userSpaceOnUse">
<stop stop-color="#00EFD1"/>
<stop offset="1" stop-color="#00ACEA"/>
</linearGradient>
<linearGradient id="paint27_linear" x1="392.409" y1="53.0002" x2="392.409" y2="106.217" gradientUnits="userSpaceOnUse">
<stop stop-color="#00EFD1"/>
<stop offset="1" stop-color="#00ACEA"/>
</linearGradient>
<linearGradient id="paint28_linear" x1="437.555" y1="45.2662" x2="437.555" y2="113.733" gradientUnits="userSpaceOnUse">
<stop stop-color="#00EFD1"/>
<stop offset="1" stop-color="#00ACEA"/>
</linearGradient>
<linearGradient id="paint29_linear" x1="452.805" y1="59.3818" x2="452.805" y2="99.619" gradientUnits="userSpaceOnUse">
<stop stop-color="#00EFD1"/>
<stop offset="1" stop-color="#00ACEA"/>
</linearGradient>
</defs>
</svg>
