<svg width="132" height="131" viewBox="0 0 132 131" fill="none" xmlns="http://www.w3.org/2000/svg">
<path d="M130 65.5C130 100.556 101.361 129 66 129C30.6394 129 2 100.556 2 65.5C2 30.4442 30.6394 2 66 2C101.361 2 130 30.4442 130 65.5Z" fill="#DF2121" stroke="white" stroke-width="4"/>
<g clip-path="url(#clip0)">
<path d="M32.0146 91.1406L39.3864 98.618C42.1001 101.371 46.5308 101.402 49.2829 98.6897L65.3779 82.8218L81.2396 98.9137C83.955 101.667 88.3857 101.697 91.1369 98.9837L98.6112 91.617C101.364 88.9034 101.397 84.4726 98.6812 81.718L82.8187 65.6264L98.9154 49.7604C101.666 47.0468 101.7 42.616 98.9834 39.8614L91.6153 32.3837C88.9002 29.6328 84.4695 29.6001 81.7182 32.312L65.6207 48.1799L49.7587 32.0866C47.0434 29.3354 42.6123 29.303 39.8605 32.0149L32.3871 39.383C29.6342 42.0984 29.6009 46.5274 32.3154 49.2821L48.1788 65.3754L32.0863 81.245C29.3334 83.957 29.3001 88.3894 32.0146 91.1406Z" fill="white"/>
</g>
<defs>
<clipPath id="clip0">
<rect width="71" height="71" fill="white" transform="translate(30 30)"/>
</clipPath>
</defs>
</svg>
