<svg width="151" height="151" viewBox="0 0 151 151" fill="none" xmlns="http://www.w3.org/2000/svg">
<circle cx="75.3885" cy="75.607" r="74.6578" fill="#2CBCC6"/>
<path d="M80.0795 121.14H69.7164C69.0832 121.14 68.4721 120.905 67.9999 120.478C67.5277 120.052 67.2274 119.465 67.1565 118.829L66.5861 113.715C62.1482 112.74 57.9184 110.971 54.0958 108.493L50.1156 111.7C49.6206 112.099 48.9975 112.299 48.3655 112.263C47.7335 112.227 47.1367 111.957 46.6891 111.505L39.3662 104.098C38.9185 103.645 38.6513 103.042 38.6157 102.404C38.5801 101.765 38.7785 101.136 39.173 100.636L42.3471 96.6146C39.8947 92.7525 38.1443 88.4791 37.1785 83.9955L32.1167 83.4192C31.489 83.3477 30.9092 83.0457 30.4875 82.5705C30.0659 82.0954 29.8318 81.4802 29.8298 80.842V70.3721C29.8296 69.7324 30.0627 69.115 30.4845 68.6379C30.9064 68.1608 31.4874 67.8575 32.1167 67.7858L37.1785 67.2095C38.1443 62.7259 39.8947 58.4525 42.3471 54.5904L39.173 50.5744C38.7785 50.0743 38.5801 49.4449 38.6157 48.8063C38.6513 48.1678 38.9185 47.5648 39.3662 47.1127L46.6981 39.709C47.1457 39.2567 47.7425 38.9868 48.3745 38.9508C49.0066 38.9148 49.6296 39.1152 50.1246 39.5139L54.1048 42.7207C57.9274 40.2429 62.1572 38.4745 66.5951 37.4987L67.1655 32.3847C67.2363 31.7506 67.5352 31.1648 68.0055 30.7388C68.4759 30.3128 69.0847 30.0763 69.7164 30.0743H80.0795C80.7127 30.0741 81.3238 30.3096 81.796 30.7358C82.2682 31.162 82.5684 31.749 82.6394 32.3847L83.2098 37.4987C87.6477 38.4745 91.8774 40.2429 95.7001 42.7207L99.6803 39.5139C100.175 39.1152 100.798 38.9148 101.43 38.9508C102.062 38.9868 102.659 39.2567 103.107 39.709L110.43 47.1166C110.877 47.5687 111.145 48.1717 111.18 48.8102C111.216 49.4488 111.017 50.0782 110.623 50.5783L107.449 54.5995C109.901 58.4616 111.652 62.735 112.617 67.2186L117.679 67.795C118.307 67.8664 118.887 68.1685 119.308 68.6436C119.73 69.1188 119.964 69.7339 119.966 70.3721V80.842C119.966 81.4818 119.733 82.0992 119.311 82.5762C118.889 83.0533 118.308 83.3567 117.679 83.4283L112.617 84.0046C111.652 88.4882 109.901 92.7616 107.449 96.6237L110.623 100.645C111.017 101.145 111.216 101.774 111.18 102.413C111.145 103.052 110.877 103.655 110.43 104.107L103.098 111.505C102.65 111.957 102.053 112.227 101.421 112.263C100.789 112.299 100.166 112.099 99.6713 111.7L95.6911 108.493C91.8684 110.971 87.6386 112.74 83.2008 113.715L82.6303 118.829C82.5596 119.464 82.2606 120.049 81.7903 120.475C81.32 120.901 80.7111 121.138 80.0795 121.14ZM54.0275 105.587C54.2846 105.587 54.5357 105.665 54.7486 105.811C58.7502 108.547 63.2602 110.433 68.0051 111.354C68.2735 111.408 68.5181 111.546 68.7034 111.75C68.8886 111.953 69.0048 112.211 69.0352 112.486L69.7164 118.538H80.0795L80.7555 112.486C80.7859 112.211 80.9021 111.953 81.0874 111.75C81.2726 111.546 81.5172 111.408 81.7856 111.354C86.5327 110.434 91.045 108.548 95.0486 105.811C95.2759 105.656 95.5465 105.578 95.8208 105.589C96.095 105.6 96.3587 105.699 96.5731 105.872L101.282 109.666L108.61 102.262L104.855 97.5044C104.684 97.2877 104.586 97.0214 104.575 96.7443C104.564 96.4672 104.641 96.1939 104.795 95.9641C107.504 91.9193 109.37 87.3605 110.282 82.5645C110.335 82.2933 110.472 82.0462 110.673 81.859C110.875 81.6719 111.13 81.5544 111.402 81.5237L117.391 80.842V70.3721L111.401 69.6891C111.129 69.6584 110.873 69.541 110.672 69.3538C110.471 69.1667 110.333 68.9196 110.28 68.6484C109.368 63.8546 107.501 59.2981 104.794 55.2552C104.64 55.0255 104.563 54.7521 104.574 54.475C104.585 54.1979 104.683 53.9316 104.854 53.7149L108.609 48.9574L101.281 41.5485L96.5719 45.3421C96.3574 45.5151 96.0938 45.6144 95.8195 45.6254C95.5452 45.6364 95.2747 45.5585 95.0473 45.4032C91.0437 42.6666 86.5314 40.7806 81.7844 39.8599C81.5159 39.8063 81.2713 39.6677 81.0861 39.4642C80.9008 39.2607 80.7846 39.0029 80.7542 38.7281L80.0795 32.6762H69.7164L69.0404 38.7281C69.01 39.0029 68.8937 39.2607 68.7085 39.4642C68.5233 39.6677 68.2787 39.8063 68.0102 39.8599C63.2654 40.7815 58.7553 42.6674 54.7538 45.4032C54.5264 45.5585 54.2558 45.6364 53.9815 45.6254C53.7073 45.6144 53.4437 45.5151 53.2292 45.3421L48.515 41.5485L41.1869 48.9522L44.9418 53.7097C45.113 53.9264 45.2113 54.1927 45.2222 54.4698C45.233 54.7469 45.156 55.0203 45.0023 55.25C42.2944 59.2929 40.4277 63.8494 39.5156 68.6432C39.4625 68.9144 39.3253 69.1615 39.1239 69.3486C38.9225 69.5358 38.6673 69.6532 38.3953 69.6839L32.4051 70.3721V80.842L38.3953 81.525C38.6673 81.5557 38.9225 81.6732 39.1239 81.8603C39.3253 82.0475 39.4625 82.2946 39.5156 82.5658C40.4269 87.3618 42.2936 91.9206 45.0023 95.9654C45.156 96.1952 45.233 96.4685 45.2222 96.7456C45.2113 97.0227 45.113 97.289 44.9418 97.5058L41.1869 102.262L48.515 109.666L53.224 105.872C53.4521 105.688 53.7354 105.587 54.0275 105.587Z" fill="white"/>
<path d="M97.909 65.2386C97.6675 65.239 97.4308 65.1707 97.2259 65.0417C97.021 64.9126 96.8561 64.728 96.7501 64.5088C96.1933 63.3607 95.5352 62.2656 94.7838 61.2369C94.6834 61.0994 94.6107 60.9432 94.57 60.7773C94.5293 60.6114 94.5214 60.4391 94.5466 60.2701C94.5718 60.1011 94.6298 59.9387 94.7171 59.7923C94.8044 59.646 94.9194 59.5184 95.0555 59.4169C95.1917 59.3154 95.3462 59.242 95.5104 59.2009C95.6746 59.1598 95.8453 59.1517 96.0125 59.1772C96.1798 59.2027 96.3405 59.2612 96.4854 59.3495C96.6303 59.4377 96.7565 59.5539 96.857 59.6914C97.7001 60.8467 98.4388 62.0763 99.064 63.3652C99.1603 63.5638 99.2049 63.7838 99.1937 64.0046C99.1824 64.2254 99.1156 64.4397 98.9997 64.6272C98.8837 64.8146 98.7223 64.9692 98.5308 65.0761C98.3393 65.1831 98.124 65.239 97.9051 65.2386H97.909Z" fill="white"/>
<path d="M74.8969 102.927C70.5625 102.922 66.2924 101.867 62.4458 99.8486C58.5991 97.8304 55.2883 94.9086 52.7916 91.3289C49.5676 86.7347 47.8423 81.2389 47.856 75.6071C47.8638 68.3639 50.7153 61.4197 55.7848 56.2979C60.8542 51.1762 67.7276 48.2954 74.8969 48.2874C75.3836 48.2874 75.8712 48.3009 76.3597 48.3278C76.5288 48.3373 76.6944 48.3805 76.847 48.4547C76.9996 48.5289 77.1362 48.6328 77.2491 48.7603C77.362 48.8879 77.4489 49.0367 77.5048 49.1982C77.5608 49.3597 77.5847 49.5307 77.5752 49.7016C77.5658 49.8724 77.5231 50.0397 77.4496 50.1939C77.3762 50.348 77.2734 50.4861 77.1471 50.6001C77.0208 50.7142 76.8736 50.802 76.7137 50.8585C76.5539 50.915 76.3846 50.9392 76.2155 50.9296C75.7764 50.901 75.336 50.8893 74.8969 50.8893C68.4104 50.8965 62.1917 53.5031 57.605 58.137C53.0184 62.7709 50.4385 69.0538 50.4313 75.6071C50.4187 80.7013 51.9788 85.6727 54.8944 89.829C57.1506 93.0709 60.1458 95.7169 63.6271 97.5434C67.1084 99.3699 70.9735 100.323 74.8963 100.323C78.819 100.323 82.6841 99.3699 86.1654 97.5434C89.6467 95.7169 92.6419 93.0709 94.8982 89.829C97.8138 85.6727 99.3743 80.7014 99.3625 75.6071C99.3625 75.317 99.3625 75.0256 99.3406 74.7355C99.3133 74.3915 99.4223 74.0506 99.6438 73.7879C99.8652 73.5251 100.181 73.362 100.521 73.3344C100.862 73.3068 101.199 73.417 101.459 73.6407C101.719 73.8644 101.881 74.1833 101.908 74.5273C101.937 74.8877 101.938 75.2468 101.938 75.6071C101.951 81.2396 100.226 86.7362 97.0022 91.3315C94.5051 94.9105 91.194 97.8316 87.3474 99.8494C83.5008 101.867 79.2311 102.922 74.8969 102.927Z" fill="white"/>
<path d="M89.3679 55.3905C89.1066 55.3905 88.8515 55.3102 88.6365 55.1602C87.6432 54.4727 86.5988 53.8638 85.5127 53.3389C85.3573 53.2665 85.2178 53.1635 85.1023 53.036C84.9867 52.9085 84.8975 52.759 84.8398 52.5963C84.7821 52.4336 84.7571 52.2608 84.7662 52.0882C84.7754 51.9156 84.8184 51.7466 84.893 51.591C84.9675 51.4354 85.072 51.2963 85.2003 51.182C85.3286 51.0676 85.4782 50.9803 85.6403 50.925C85.8024 50.8697 85.9738 50.8476 86.1444 50.86C86.3151 50.8724 86.4816 50.9191 86.6342 50.9972C87.8395 51.5821 88.9988 52.2592 90.1019 53.0228C90.328 53.1805 90.4983 53.4072 90.5879 53.6697C90.6774 53.9322 90.6814 54.2167 90.5994 54.4817C90.5174 54.7467 90.3536 54.9782 90.1321 55.1424C89.9105 55.3066 89.6427 55.3949 89.3679 55.3944V55.3905Z" fill="white"/>
<path d="M95.9521 91.8818C95.7449 91.8819 95.5407 91.8314 95.3568 91.7347C95.173 91.638 95.015 91.4979 94.8963 91.3263C92.6447 88.0787 89.6515 85.4273 86.1702 83.5967C82.6889 81.7662 78.8221 80.8104 74.8976 80.8104C70.973 80.8104 67.1063 81.7662 63.625 83.5967C60.1437 85.4273 57.1505 88.0787 54.8989 91.3263C54.8034 91.4697 54.6805 91.5924 54.5375 91.6873C54.3945 91.7821 54.2342 91.8472 54.0659 91.8788C53.8977 91.9104 53.725 91.9078 53.5578 91.8711C53.3906 91.8345 53.2323 91.7646 53.0922 91.6654C52.952 91.5663 52.8328 91.4399 52.7416 91.2937C52.6503 91.1475 52.5888 90.9844 52.5606 90.8139C52.5325 90.6434 52.5382 90.4689 52.5776 90.3007C52.6169 90.1325 52.689 89.9739 52.7897 89.8341C55.2788 86.2441 58.5877 83.313 62.4361 81.2894C66.2846 79.2658 70.5591 78.2093 74.8976 78.2093C79.236 78.2093 83.5106 79.2658 87.359 81.2894C91.2075 83.313 94.5164 86.2441 97.0054 89.8341C97.1406 90.029 97.2203 90.2576 97.2359 90.495C97.2514 90.7324 97.2022 90.9696 97.0936 91.1808C96.985 91.3919 96.8212 91.5689 96.6199 91.6925C96.4186 91.8161 96.1877 91.8816 95.9521 91.8818Z" fill="white"/>
<path d="M74.8984 80.8109C72.9486 80.8109 71.0426 80.2267 69.4214 79.1323C67.8002 78.0379 66.5367 76.4823 65.7905 74.6624C65.0444 72.8424 64.8491 70.8398 65.2295 68.9078C65.6099 66.9757 66.5488 65.201 67.9275 63.8081C69.3063 62.4152 71.0628 61.4666 72.9752 61.0823C74.8875 60.698 76.8697 60.8952 78.6711 61.6491C80.4724 62.4029 82.0121 63.6795 83.0954 65.3174C84.1786 66.9553 84.7568 68.881 84.7568 70.8509C84.7537 73.4915 83.7141 76.023 81.866 77.8902C80.0178 79.7574 77.5121 80.8078 74.8984 80.8109ZM74.8984 63.4928C73.458 63.4928 72.0499 63.9243 70.8522 64.7328C69.6545 65.5414 68.721 66.6905 68.1698 68.0351C67.6186 69.3796 67.4744 70.859 67.7554 72.2864C68.0364 73.7137 68.73 75.0248 69.7486 76.0538C70.7671 77.0829 72.0648 77.7837 73.4776 78.0676C74.8904 78.3515 76.3547 78.2058 77.6855 77.6489C79.0163 77.092 80.1538 76.1489 80.9541 74.9388C81.7543 73.7288 82.1815 72.3062 82.1815 70.8509C82.1794 68.9 81.4114 67.0297 80.0461 65.6502C78.6807 64.2707 76.8294 63.4948 74.8984 63.4928Z" fill="white"/>
</svg>
