<svg width="151" height="151" viewBox="0 0 151 151" fill="none"
xmlns="http://www.w3.org/2000/svg">
<ellipse cx="75.3101" cy="75.607" rx="75.149" ry="74.6578" fill="#2CBCC6"/>
<g clip-path="url(#clip0)">
<path d="M81.2872 120.795C80.7832 120.795 80.2907 120.593 79.9252 120.227C79.4712 119.768 79.2711 119.107 79.3981 118.473L82.1182 104.728C82.1952 104.347 82.3722 104.001 82.6453 103.732L112.571 73.4881C114.818 71.2173 118.485 71.2173 120.732 73.4881L126.172 78.9863C128.423 81.2611 128.423 84.959 126.172 87.2337L96.2463 117.478C95.9808 117.75 95.6383 117.933 95.2613 118.011L81.6604 120.76C81.5373 120.783 81.4103 120.795 81.2872 120.795ZM85.7811 106.061L83.7419 116.37L93.9416 114.309L123.456 84.4807C124.206 83.7225 124.206 82.4898 123.456 81.7316L118.015 76.2333C117.265 75.4751 116.045 75.4751 115.295 76.2333L85.7811 106.061ZM94.8881 116.101H94.9266H94.8881Z" fill="white"/>
<path d="M72.0766 109.129H45.1441C39.8384 109.129 35.5254 104.77 35.5254 99.4084V48.8588C35.5254 43.4966 39.8384 39.1377 45.1441 39.1377H52.8391C53.901 39.1377 54.7629 40.0087 54.7629 41.0819C54.7629 42.1551 53.901 43.0261 52.8391 43.0261H45.1441C41.9623 43.0261 39.3729 45.643 39.3729 48.8588V99.4084C39.3729 102.624 41.9623 105.241 45.1441 105.241H72.0766C73.1385 105.241 74.0004 106.112 74.0004 107.185C74.0004 108.258 73.1385 109.129 72.0766 109.129Z" fill="white"/>
<path d="M99.0091 74.1336C97.9472 74.1336 97.0854 73.2625 97.0854 72.1893V48.8588C97.0854 45.643 94.496 43.0261 91.3141 43.0261H83.6191C82.5572 43.0261 81.6954 42.1551 81.6954 41.0819C81.6954 40.0087 82.5572 39.1377 83.6191 39.1377H91.3141C96.6198 39.1377 100.933 43.4966 100.933 48.8588V72.1893C100.933 73.2625 100.071 74.1336 99.0091 74.1336Z" fill="white"/>
<path d="M79.7718 50.803H56.6868C53.505 50.803 50.9156 48.1861 50.9156 44.9703V37.1935C50.9156 36.1203 51.7774 35.2493 52.8393 35.2493H58.803C59.6956 30.8165 63.5854 27.4724 68.2293 27.4724C72.8733 27.4724 76.7631 30.8165 77.6557 35.2493H83.6193C84.6812 35.2493 85.5431 36.1203 85.5431 37.1935V44.9703C85.5431 48.1861 82.9537 50.803 79.7718 50.803ZM54.7631 39.1377V44.9703C54.7631 46.0397 55.6288 46.9146 56.6868 46.9146H79.7718C80.8299 46.9146 81.6956 46.0397 81.6956 44.9703V39.1377H75.9243C74.8624 39.1377 74.0006 38.2667 74.0006 37.1935C74.0006 33.9778 71.4112 31.3608 68.2293 31.3608C65.0474 31.3608 62.4581 33.9778 62.4581 37.1935C62.4581 38.2667 61.5962 39.1377 60.5343 39.1377H54.7631Z" fill="white"/>
<path d="M87.4666 62.4683H48.9916C47.9297 62.4683 47.0679 61.5973 47.0679 60.5241C47.0679 59.4508 47.9297 58.5798 48.9916 58.5798H87.4666C88.5285 58.5798 89.3903 59.4508 89.3903 60.5241C89.3903 61.5973 88.5285 62.4683 87.4666 62.4683Z" fill="white"/>
<path d="M87.4666 74.1336H48.9916C47.9297 74.1336 47.0679 73.2626 47.0679 72.1894C47.0679 71.1162 47.9297 70.2451 48.9916 70.2451H87.4666C88.5285 70.2451 89.3903 71.1162 89.3903 72.1894C89.3903 73.2626 88.5285 74.1336 87.4666 74.1336Z" fill="white"/>
<path d="M87.4666 85.7988H48.9916C47.9297 85.7988 47.0679 84.9278 47.0679 83.8546C47.0679 82.7814 47.9297 81.9104 48.9916 81.9104H87.4666C88.5285 81.9104 89.3903 82.7814 89.3903 83.8546C89.3903 84.9278 88.5285 85.7988 87.4666 85.7988Z" fill="white"/>
</g>
<defs>
<clipPath id="clip0">
<rect width="92.34" height="93.3223" fill="white" transform="translate(35.5254 27.4724)"/>
</clipPath>
</defs>
</svg>
