<svg width="178" height="173" viewBox="0 0 178 173" fill="none" xmlns="http://www.w3.org/2000/svg">
<ellipse cx="89.1037" cy="86.9039" rx="88.4106" ry="85.9547" fill="#2CBCC6"/>
<path d="M138.628 29.4371H91.4143C88.4057 29.4371 85.9668 31.8761 85.9668 34.8847V40.3491C85.8265 40.3322 85.7267 40.3322 85.6938 40.3322H82.5162C82.3057 40.3322 61.5262 41.5205 60.7022 60.6707C60.5365 64.4077 60.5205 67.4569 60.5712 69.999C59.4641 69.4446 58.1635 69.4319 57.0462 69.9643C56.3871 70.3277 54.3791 71.4314 55.2977 80.6507C55.3129 80.797 55.3442 80.9406 55.3924 81.0792C56.7513 84.6785 59.083 87.8291 62.127 90.1811C61.9453 94.5393 61.9927 99.0319 65.9664 103.868V109.941C63.5502 112.021 60.6937 113.526 57.6133 114.344C54.4881 115.021 51.4998 116.22 48.7735 117.89C46.4925 119.184 44.1803 120.423 41.8723 121.66C41.5207 121.841 41.1151 122.036 40.6908 122.235C38.7403 122.928 37.0366 124.177 35.7875 125.827C35.2018 126.954 34.9694 128.232 35.1216 129.494C35.1216 129.719 35.1393 129.943 35.1376 130.166V134.313V134.845C35.1376 136.851 36.7636 138.477 38.769 138.477H129.643C131.648 138.477 133.274 136.851 133.274 134.845C133.274 133.114 133.274 130.85 133.274 130.166C133.274 129.94 133.274 129.715 133.291 129.488C133.438 128.234 133.204 126.964 132.621 125.846C131.377 124.195 129.678 122.944 127.732 122.246C127.307 122.047 126.902 121.857 126.552 121.671C124.237 120.434 121.927 119.195 119.651 117.901C116.925 116.231 113.937 115.032 110.812 114.355C107.732 113.531 104.876 112.024 102.458 109.946V103.746C106.328 98.9575 106.363 94.5013 106.189 90.1811C109.195 87.8097 111.514 84.6794 112.907 81.1122C112.96 80.9668 112.996 80.8155 113.011 80.6617C113.928 71.45 111.941 70.3421 111.282 69.9753C110.156 69.4285 108.84 69.4404 107.725 70.0083C107.743 69.2511 107.75 68.4406 107.75 67.5853L108.74 66.845C109.684 66.1394 110.83 65.7574 112.009 65.7548H138.628C141.637 65.7548 144.076 63.3158 144.076 60.3073V34.8847C144.076 31.8761 141.637 29.4371 138.628 29.4371V29.4371ZM58.8953 80.0609C58.6266 77.7968 58.6545 75.5083 58.9782 73.251C59.6416 73.5299 60.2551 73.9152 60.7943 74.3919C60.9726 76.6382 61.2642 78.8735 61.6681 81.0902C61.9411 82.5193 62.1228 83.9644 62.2124 85.4163C60.8205 83.825 59.699 82.0156 58.8953 80.0609ZM38.7767 130.178C38.7767 129.902 38.7767 129.633 38.7581 129.35C38.6702 128.787 38.731 128.21 38.9347 127.678C39.8575 126.719 40.9892 125.986 42.2416 125.535C42.7301 125.306 43.1907 125.088 43.5921 124.874C45.933 123.625 48.2723 122.371 50.5803 121.061C52.9525 119.597 55.5521 118.538 58.2725 117.926C58.4534 117.894 58.635 117.848 58.8167 117.806C58.3807 123.87 59.5579 130.422 63.5908 134.831H38.7834V134.298C38.775 132.675 38.7733 130.786 38.7767 130.178ZM117.843 121.061C120.151 122.37 122.49 123.623 124.828 124.874C125.232 125.088 125.693 125.306 126.181 125.535C127.434 125.986 128.565 126.719 129.488 127.678C129.689 128.209 129.749 128.785 129.659 129.346C129.65 129.624 129.639 129.904 129.641 130.18V134.831H104.781C109.442 129.788 109.812 122.366 109.49 117.782C109.709 117.834 109.929 117.888 110.15 117.928C112.871 118.539 115.47 119.598 117.843 121.061ZM105.713 116.385C106.243 120.695 106.593 130.928 98.8319 134.828H69.4694C61.6335 130.876 62.1363 120.232 62.5902 116.441C63.7632 115.865 64.8939 115.206 65.9731 114.47V116.601C65.9731 117.603 66.7861 118.416 67.7893 118.416C68.7924 118.416 69.6054 117.603 69.6054 116.601V108.03C70.5384 109.276 71.408 110.57 72.2109 111.905C74.2738 115.253 76.2209 118.416 81.0634 118.416H87.2378C92.0803 118.416 94.0274 115.253 96.0903 111.905C96.9219 110.517 97.8287 109.175 98.8048 107.884V116.601C98.8048 117.603 99.6178 118.416 100.621 118.416C101.624 118.416 102.437 117.603 102.437 116.601V114.467C103.483 115.18 104.579 115.821 105.713 116.385ZM109.319 73.2003C109.649 75.4685 109.679 77.7706 109.406 80.0465C108.587 81.9852 107.466 83.7819 106.085 85.3707C106.178 83.9315 106.359 82.4999 106.63 81.0834C106.931 79.3197 107.273 77.2695 107.498 74.3969C108.053 73.9245 108.665 73.5222 109.319 73.2003ZM103.051 80.464C102.655 82.4373 102.443 84.4436 102.419 86.4567C102.419 87.4226 102.461 88.3598 102.499 89.2895C102.493 89.3664 102.493 89.4441 102.499 89.5219V89.6233C102.709 94.4827 102.874 98.3237 98.3096 102.916C96.2534 105.051 94.4669 107.429 92.9888 109.998C90.9022 113.403 89.943 114.785 87.2378 114.785H81.0634C78.3582 114.785 77.399 113.403 75.3032 110C73.8259 107.431 72.0402 105.052 69.9849 102.918C69.6544 102.586 69.3561 102.259 69.0764 101.933C65.4449 97.7566 65.6013 94.1252 65.7974 89.6233V89.5126C65.8024 89.4348 65.8024 89.3562 65.7974 89.2785C65.8371 88.3522 65.8768 87.4175 65.8768 86.4567C65.8506 84.447 65.6385 82.4449 65.2438 80.475C64.1283 73.993 63.8232 67.3969 64.3353 60.8397C65.0182 45.0175 81.9719 43.9992 82.6074 43.9645H85.6034C85.6034 43.9645 85.7487 43.9645 85.9668 43.9932V60.3073C85.9668 63.3158 88.4057 65.7548 91.4143 65.7548H93.2305V71.2033C93.2305 72.5783 94.0071 73.8358 95.2376 74.451C96.4681 75.0663 97.9403 74.9336 99.0414 74.1087L104.067 70.3387C103.998 73.7403 103.657 77.1309 103.051 80.4783V80.464ZM140.443 60.3073C140.443 61.3104 139.63 62.1234 138.628 62.1234H111.994C110.03 62.1276 108.12 62.764 106.546 63.9395L96.8619 71.2033V65.7548C96.8619 63.7494 95.2359 62.1234 93.2305 62.1234H91.4143C90.4112 62.1234 89.5982 61.3104 89.5982 60.3073V34.8847C89.5982 33.8815 90.4112 33.0685 91.4143 33.0685H138.628C139.63 33.0685 140.443 33.8815 140.443 34.8847V60.3073Z" fill="white"/>
<path d="M134.994 45.7799H132.672L131.268 41.5746C131.021 40.803 130.287 40.2942 129.477 40.3323C128.671 40.3635 127.981 40.9222 127.785 41.7056L125.754 49.8246L122.207 37.9955C121.983 37.2476 121.307 36.7262 120.527 36.7008C119.755 36.7 119.059 37.1656 118.765 37.8789L114.782 48.5045L113.022 44.9686C112.687 44.3119 111.994 43.9172 111.258 43.9646C110.526 44.0161 109.896 44.5054 109.664 45.2027L107.848 50.6502L104.048 37.9955C103.826 37.2544 103.16 36.7346 102.388 36.7008C101.619 36.6729 100.913 37.1276 100.621 37.8392L97.4466 45.7799H95.0439C94.0416 45.7799 93.2286 46.5937 93.2286 47.596C93.2286 48.5992 94.0416 49.4122 95.0439 49.4122H98.6762C99.4182 49.413 100.087 48.9609 100.363 48.2721L102.063 44.0187L106.016 57.1973C106.243 57.9554 106.936 58.4802 107.728 58.492H107.755C108.538 58.492 109.232 57.9917 109.479 57.2497L111.723 50.5125L113.394 53.8558C113.707 54.5107 114.389 54.9079 115.114 54.8581C115.836 54.8209 116.468 54.3586 116.721 53.6817L120.286 44.1987L124.184 57.1973C124.412 57.9858 125.145 58.5191 125.966 58.492C126.783 58.4726 127.487 57.9098 127.686 57.117L129.826 48.551C130.156 49.0843 130.736 49.4096 131.363 49.4122H134.994C135.997 49.4122 136.81 48.5992 136.81 47.596C136.81 46.5937 135.997 45.7799 134.994 45.7799Z" fill="white"/>
</svg>
